<svg xmlns="http://www.w3.org/2000/svg" width="300" height="315" viewBox="0 0 300 315" fill="none">
  <path fill-rule="evenodd" clip-rule="evenodd" d="M173.593 16.0223L156.689 30.5151L156.691 30.5179C154.573 32.3319 151.387 32.0869 149.573 29.9686C147.759 27.8531 148.004 24.6673 150.12 22.8504L175.359 1.21688L175.384 1.19998C175.595 1.02252 175.818 0.864777 176.054 0.723933L176.147 0.667596C176.376 0.538021 176.615 0.425346 176.86 0.33239C176.88 0.325369 176.899 0.318348 176.918 0.311328C176.937 0.304264 176.956 0.297201 176.976 0.290137C177.221 0.202814 177.471 0.138026 177.728 0.0901396C177.753 0.0847273 177.778 0.0816259 177.803 0.0786154C177.816 0.0769253 177.83 0.0752638 177.843 0.0732381C178.105 0.0281686 178.373 0.00281686 178.638 0H178.649C178.914 0.00281686 179.178 0.0281686 179.44 0.0732381C179.453 0.0751154 179.467 0.07668 179.48 0.0782444C179.506 0.0813749 179.532 0.0845048 179.559 0.0901396C179.812 0.138026 180.066 0.202814 180.308 0.290137L180.426 0.33239C180.671 0.425346 180.911 0.538021 181.139 0.667596L181.232 0.723933C181.468 0.864777 181.691 1.02252 181.902 1.19998C181.906 1.20374 181.912 1.2075 181.919 1.21125C181.922 1.21313 181.925 1.21501 181.928 1.21688L207.167 22.8504C209.282 24.6673 209.527 27.8531 207.713 29.9686C205.899 32.0869 202.71 32.3319 200.595 30.5179L183.688 16.0223V75.7201C183.688 78.5059 181.429 80.7679 178.64 80.7679C175.854 80.7679 173.593 78.5059 173.593 75.7201V16.0223ZM294.019 103.61C295.653 103.61 297.182 104.399 298.129 105.728C299.078 107.058 299.323 108.765 298.791 110.308L270.163 192.932C265.879 205.273 254.251 213.549 241.189 213.555H83.6953L91.0389 268.636C92.6079 278.624 101.233 285.971 111.346 285.931H116.131C118.923 276.143 127.869 269.391 138.047 269.391C148.224 269.391 157.168 276.143 159.959 285.931H203.226C206.415 274.771 217.479 267.788 228.924 269.712C240.369 271.633 248.544 281.85 247.91 293.438C247.276 305.027 238.037 314.289 226.448 314.951C214.863 315.615 204.626 307.466 202.674 296.027H160.511C158.652 306.982 149.159 315.001 138.047 315.001C126.931 315.001 117.439 306.982 115.579 296.027H111.343C96.2388 296.086 83.3601 285.086 81.0559 270.157C81.0504 270.115 81.0449 270.077 81.0393 270.038L81.039 270.036L56.6703 87.2861C55.1014 77.2975 46.4761 69.9511 36.3636 69.9934H5.57247C2.7866 69.9934 0.524658 67.7314 0.524658 64.9455C0.524658 62.1568 2.7866 59.8977 5.57247 59.8977H36.3608C51.4676 59.8358 64.3463 70.8356 66.6477 85.765C66.6552 85.8 66.6605 85.8372 66.6655 85.8727L66.6674 85.8861L69.0307 103.61H294.019Z" fill="url(#paint0_linear_10_159)"/>
  <defs>
    <linearGradient id="paint0_linear_10_159" x1="149.796" y1="0" x2="149.796" y2="315.001" gradientUnits="userSpaceOnUse">
      <stop stop-color="#18C19F"/>
      <stop offset="1" stop-color="#8BF3AF"/>
    </linearGradient>
  </defs>
</svg>