<svg width="27" height="27" viewBox="0 0 27 27" fill="none" xmlns="http://www.w3.org/2000/svg">
<g clip-path="url(#clip0_108_1552)">
<path d="M11.2387 6.23168L13.6665 5.87498C14.6106 5.73629 15.3322 4.96141 15.4034 4.00988L15.6653 0.511214C15.6934 0.13585 15.2945 -0.121441 14.9641 0.0589108L12.746 1.26985C11.9879 1.68371 11.4553 2.41556 11.2947 3.26416L10.8163 5.79135C10.7684 6.04437 10.984 6.26912 11.2387 6.23168Z" fill="#FFE07D"/>
<path d="M14.9642 0.058912L13.9089 0.634982L13.6597 3.96532C13.5884 4.91686 12.8668 5.69168 11.9228 5.83043L10.8333 5.99053C10.8919 6.14878 11.0549 6.25868 11.2388 6.23163L13.6666 5.87488C14.6107 5.73619 15.3323 4.96131 15.4035 4.00977L15.6654 0.511109C15.6934 0.135851 15.2946 -0.12144 14.9642 0.058912Z" fill="#FFD064"/>
<path d="M6.86684 15.9549L8.46527 15.6186C8.81484 15.6588 9.04297 16.0055 8.94156 16.3424L8.51278 17.7674L12.5037 23.3514H15.1574L25.1904 21.3855L19.5049 9.97888C18.6578 8.27941 17.6577 6.66062 16.5169 5.14261C14.778 2.53421 11.2567 1.82403 8.64267 3.55451L6.94921 4.67559C6.24636 5.14087 5.78673 5.89455 5.69476 6.73244L5.54252 8.11994C5.48815 8.61575 5.14801 9.03356 4.67356 9.18749L1.6117 10.1807L0.985107 12.6554L1.1672 13.0342C1.71991 14.1842 2.82406 14.9702 4.09169 15.1159L5.15371 15.238C5.1998 15.2433 5.24225 15.2675 5.26814 15.3059C5.61761 15.8257 6.24937 16.0848 6.86684 15.9549Z" fill="#FFD064"/>
<path d="M19.5048 9.97888C18.6578 8.27941 17.6576 6.66062 16.5169 5.14261C15.0291 2.91094 12.2367 2.06904 9.82397 2.95614C10.9206 3.35676 11.9042 4.09699 12.6013 5.14261C13.7421 6.66062 14.7422 8.27941 15.5893 9.97888L22.0087 22.8577L25.1904 21.3855L19.5048 9.97888Z" fill="#FFC250"/>
<path d="M19.6742 13.383L19.7186 12.7946C19.7858 11.9051 19.4194 11.0378 18.7347 10.466L16.716 8.78023C16.4747 8.57874 16.1131 8.78688 16.1661 9.09675L16.6361 11.8414C16.6756 12.0721 16.8116 12.2749 17.0099 12.3991L19.0691 13.6888C19.3215 13.847 19.6517 13.6802 19.6742 13.383Z" fill="#4A80AA"/>
<path d="M18.7347 10.4661L16.716 8.7803C16.4747 8.5788 16.1131 8.78694 16.1661 9.09681L16.312 9.94862L17.0991 10.6059C17.7838 11.1777 18.1503 12.0449 18.083 12.9345L18.0732 13.0652L19.069 13.6889C19.3215 13.847 19.6517 13.6802 19.6742 13.3831L19.7186 12.7946C19.7858 11.9051 19.4194 11.0379 18.7347 10.4661Z" fill="#407093"/>
<path d="M13.3879 17.6197C13.6837 17.9167 14.0466 18.1382 14.4459 18.2656C14.5011 18.2832 14.5453 18.3249 14.566 18.3791L14.7367 18.8268C14.8549 19.1368 15.1721 19.3358 15.4995 19.2818C15.516 19.2791 15.5325 19.2758 15.549 19.2719L16.4505 19.0621C16.8143 18.9774 17.0852 19.3935 16.8606 19.6919L15.9297 20.9284C15.4013 21.6303 15.1335 22.4858 15.1572 23.3513H26.1626C26.346 23.3513 26.4772 23.1728 26.4208 22.9983C26.3059 22.6426 26.2195 22.278 26.1632 21.9077L25.671 18.67C25.4794 17.4099 24.9459 16.2265 24.1287 15.2484L21.9996 12.7002C21.2931 11.8547 20.3172 11.2779 19.2358 11.0667L19.1225 11.0446C17.7087 10.7685 16.2456 11.1419 15.1371 12.0618L14.6597 12.4579C13.9695 13.0307 13.6572 13.9411 13.8506 14.8169L14.0082 15.5308L13.0896 16.5422L13.125 17.3557L13.3879 17.6197Z" fill="#407093"/>
<path d="M7.71198 10.1504C8.09765 10.1504 8.41029 9.83773 8.41029 9.45206C8.41029 9.0664 8.09765 8.75375 7.71198 8.75375C7.32632 8.75375 7.01367 9.0664 7.01367 9.45206C7.01367 9.83773 7.32632 10.1504 7.71198 10.1504Z" fill="#707DD3"/>
<path d="M0.696879 12.0555L0.985125 12.6553L1.13663 12.252C1.23451 11.9916 1.48768 11.8226 1.76575 11.8322L2.48141 11.8569C2.76797 11.8668 2.92027 11.5222 2.72003 11.317L1.61166 10.1806L1.48162 10.2228C0.719133 10.4701 0.349624 11.333 0.696879 12.0555Z" fill="#407093"/>
<path d="M2.72002 11.317L1.61165 10.1806L1.4816 10.2228C1.22711 10.3054 1.0167 10.4568 0.861816 10.6483L1.78778 11.5977C1.85681 11.6684 1.89119 11.7525 1.89879 11.8368L2.48139 11.8569C2.76795 11.8668 2.92025 11.5222 2.72002 11.317Z" fill="#365E7D"/>
<path d="M4.7724 12.9745C5.02531 12.9745 5.23034 12.7694 5.23034 12.5165C5.23034 12.2636 5.02531 12.0586 4.7724 12.0586C4.51948 12.0586 4.31445 12.2636 4.31445 12.5165C4.31445 12.7694 4.51948 12.9745 4.7724 12.9745Z" fill="#FFC250"/>
<path d="M6.54242 12.9745C6.79533 12.9745 7.00036 12.7694 7.00036 12.5165C7.00036 12.2636 6.79533 12.0586 6.54242 12.0586C6.2895 12.0586 6.08447 12.2636 6.08447 12.5165C6.08447 12.7694 6.2895 12.9745 6.54242 12.9745Z" fill="#FFC250"/>
<path d="M5.79803 14.2459C6.05095 14.2459 6.25598 14.0408 6.25598 13.7879C6.25598 13.535 6.05095 13.33 5.79803 13.33C5.54512 13.33 5.34009 13.535 5.34009 13.7879C5.34009 14.0408 5.54512 14.2459 5.79803 14.2459Z" fill="#FFC250"/>
<path d="M16.0098 16.1798C16.3683 16.1798 16.6588 15.8892 16.6588 15.5308C16.6588 15.1724 16.3683 14.8818 16.0098 14.8818C15.6514 14.8818 15.3608 15.1724 15.3608 15.5308C15.3608 15.8892 15.6514 16.1798 16.0098 16.1798Z" fill="#95D6A4"/>
<path d="M13.6433 16.5013L13.0897 16.5423L13.033 16.6047C12.8762 16.7773 12.8607 17.0359 12.9958 17.226L13.1251 17.3558L13.7035 17.3129C13.9276 17.2963 14.0959 17.1011 14.0793 16.877C14.0627 16.6529 13.8678 16.4852 13.6433 16.5013Z" fill="#E28086"/>
<path d="M13.2494 6.65151L14.3001 6.70282L16.0543 6.47479C16.0543 6.47479 16.8545 6.56882 17.2516 6.16651C17.4899 5.92514 17.6701 5.62229 17.7653 5.27741L18.6991 1.89555C18.7993 1.53274 18.4578 1.20315 18.0988 1.31616L15.6882 2.07506C14.8644 2.33441 14.2002 2.94945 13.8784 3.7509L12.9201 6.13782C12.8242 6.37671 12.9923 6.63896 13.2494 6.65151Z" fill="#FFE07D"/>
<path d="M18.0987 1.31614L16.6848 1.76127C16.6853 1.80499 16.6797 1.84997 16.6671 1.89554L15.7333 5.27739C15.5373 5.9872 14.9815 6.5185 14.3 6.7028L15.7004 6.7712C16.6534 6.81776 17.5113 6.19713 17.7652 5.27739L18.699 1.89554C18.7992 1.53272 18.4577 1.20308 18.0987 1.31614Z" fill="#FFD064"/>
<path d="M16.7797 11.9067L16.893 11.9288C17.9744 12.14 18.9503 12.7168 19.6568 13.5623L21.786 16.1105C22.6033 17.0886 23.1367 18.2721 23.3283 19.5322L23.8206 22.7699C23.8503 22.9655 23.8892 23.1594 23.9354 23.3515H26.1628C26.3462 23.3515 26.4774 23.173 26.4211 22.9984C26.3062 22.6427 26.2197 22.2781 26.1634 21.9079L25.6711 18.6702C25.4795 17.4101 24.9461 16.2266 24.1289 15.2485L21.9997 12.7003C21.2932 11.8548 20.3173 11.278 19.2359 11.0668L19.1226 11.0447C17.8304 10.7924 16.4971 11.083 15.4309 11.8372C15.8768 11.7971 16.3307 11.819 16.7797 11.9067Z" fill="#365E7D"/>
<path d="M21.0773 13.2973C21.0773 13.2973 21.6635 12.7126 21.6922 12.3657C21.7351 11.8473 21.6314 11.32 21.3817 10.8474L20.1533 8.52195C20.0065 8.24399 19.5929 8.29946 19.5245 8.60627L18.9184 11.3241C18.8674 11.5525 18.9163 11.7917 19.0527 11.9819L20.0496 13.3718L21.0773 13.2973Z" fill="#4A80AA"/>
<path d="M21.3816 10.8475L20.1532 8.52198C20.0064 8.24402 19.5928 8.29949 19.5244 8.6063L19.3025 9.60129L19.9927 10.9078C20.3984 11.6758 20.4176 12.5882 20.0495 13.3719L20.4687 13.9563C20.6423 14.1984 21.0111 14.1693 21.1446 13.9028L21.4089 13.3753C21.8085 12.5776 21.7983 11.6362 21.3816 10.8475Z" fill="#407093"/>
<path d="M21.8908 27C23.65 27 25.0761 25.5739 25.0761 23.8147C25.0761 22.0556 23.65 20.6295 21.8908 20.6295C20.1317 20.6295 18.7056 22.0556 18.7056 23.8147C18.7056 25.5739 20.1317 27 21.8908 27Z" fill="#B3E59F"/>
<path d="M23.7585 21.2352C24.1392 21.76 24.3643 22.405 24.3643 23.1029C24.3643 24.8621 22.9382 26.2882 21.179 26.2882C20.4811 26.2882 19.8361 26.0631 19.3113 25.6824C19.8901 26.4805 20.8296 27 21.8908 27C23.6499 27 25.076 25.5739 25.076 23.8148C25.0761 22.7535 24.5566 21.8141 23.7585 21.2352Z" fill="#95D6A4"/>
<path d="M21.5329 25.0129C21.425 25.0129 21.3215 24.97 21.2451 24.8937L20.4341 24.0827C20.2752 23.9237 20.2752 23.6661 20.4341 23.5071C20.593 23.3483 20.8508 23.3483 21.0096 23.5071L21.5329 24.0304L22.8689 22.6943C23.0278 22.5355 23.2855 22.5355 23.4444 22.6943C23.6034 22.8532 23.6034 23.1109 23.4444 23.2698L21.8206 24.8937C21.7443 24.97 21.6408 25.0129 21.5329 25.0129Z" fill="#F2FBFF"/>
<path d="M12.781 22.4157C12.911 21.9771 12.5823 21.5369 12.1248 21.5369C11.6751 21.5369 11.3476 21.1105 11.4637 20.6759L11.5074 20.5121C11.6235 20.0776 11.296 19.6512 10.8462 19.6512H10.7546C10.3173 19.6512 9.99216 19.2466 10.0862 18.8195L10.1348 18.599C10.2289 18.172 9.90378 17.7674 9.46645 17.7674H8.5128L7.75875 20.2733C7.53875 21.0044 7.427 21.7637 7.427 22.5272V23.0801C7.427 23.23 7.54845 23.3515 7.69832 23.3515H12.5037L12.781 22.4157Z" fill="#F9F6F6"/>
<path d="M19.7033 16.9414L21.0874 17.132C21.31 17.1626 21.5154 17.0071 21.5461 16.7844C21.5768 16.5618 21.4211 16.3564 21.1984 16.3257L19.8143 16.1351C19.045 16.0291 18.2725 16.1587 17.5784 16.5102L16.7242 16.9472C16.555 17.0339 16.451 17.2127 16.4595 17.4028C16.4679 17.5928 16.5873 17.7617 16.7638 17.8331L17.7131 18.2166C18.1247 18.3788 18.4905 18.6453 18.771 18.9872L19.244 19.5637C19.3245 19.6618 19.4412 19.7125 19.5589 19.7125C19.6497 19.7125 19.7411 19.6823 19.8168 19.6202C19.9906 19.4777 20.0159 19.2213 19.8733 19.0474L19.4003 18.471C19.2133 18.2431 18.9974 18.0409 18.7599 17.8692C19.083 17.9409 19.3938 18.0648 19.6792 18.2382L20.8929 18.9757C20.959 19.0159 21.0319 19.0349 21.1039 19.0349C21.2414 19.0349 21.3755 18.9653 21.4521 18.8392C21.5688 18.6471 21.5077 18.3968 21.3156 18.2801L20.1019 17.5427C19.6265 17.2538 19.096 17.0729 18.5471 17.0091C18.9218 16.9116 19.313 16.8878 19.7033 16.9414Z" fill="#4A80AA"/>
</g>
<defs>
<clipPath id="clip0_108_1552">
<rect width="27" height="27" fill="white"/>
</clipPath>
</defs>
</svg>
