<svg width="30" height="30" viewBox="0 0 30 30" fill="none" xmlns="http://www.w3.org/2000/svg">
<rect width="30" height="30" fill="#FCEED5"/>
<g clip-path="url(#clip0_108_1538)">
<path d="M27 11.9462C27.0004 12.3527 26.9783 12.7588 26.9338 13.1628C26.4 18.2111 22.531 23.52 15 25.9655C7.48139 23.5324 3.60001 18.24 3.06622 13.1628C3.02158 12.7588 2.99948 12.3527 3.00001 11.9462C3.00001 7.93243 5.44966 4.44829 9.00001 4.44829C10.1563 4.44605 11.299 4.69747 12.3476 5.18484L18.2979 4.92002C19.1641 4.60597 20.0787 4.44631 21 4.44829C24.5504 4.44829 27 7.93243 27 11.9462Z" fill="#DF4D60"/>
<path d="M27 11.9462C27.0004 12.3527 26.9783 12.7588 26.9338 13.1628C25.4524 16.9697 20.669 19.7586 15 19.7586C9.33104 19.7586 4.5476 16.9697 3.06622 13.1628C3.02158 12.7588 2.99948 12.3527 3.00001 11.9462C3.00001 7.93243 5.44966 4.44829 9.00001 4.44829C10.1563 4.44605 11.299 4.69747 12.3476 5.18484L18.2979 4.92002C19.1641 4.60597 20.0787 4.44631 21 4.44829C24.5504 4.44829 27 7.93243 27 11.9462Z" fill="#FF5364"/>
<path d="M24.2069 19.7835C22.4725 21.9915 20.2312 23.7487 17.6731 24.9062C17.4248 25.0262 17.1724 25.1421 16.9158 25.2455C16.3075 25.5103 15.6662 25.7503 15 25.9655C14.7186 25.8745 14.4413 25.7793 14.1724 25.68V21.4138C13.1374 20.2807 12.5492 18.8102 12.5172 17.2759C12.5398 15.8139 12.9146 14.3788 13.6096 13.0924C13.6565 12.9908 13.659 12.8743 13.6166 12.7707C13.5743 12.6672 13.4908 12.5858 13.3862 12.5462C12.1823 12.1299 10.9192 11.9105 9.64548 11.8966C7.66341 11.2345 7.52686 9.25242 7.55582 8.48276C7.56163 8.29954 7.68833 8.14242 7.86617 8.09793L10.2662 7.50207C10.666 7.40062 11.014 7.15437 11.2427 6.81104L12.2151 5.35448C12.2557 5.2952 12.2999 5.23853 12.3475 5.18483C12.553 4.94619 12.8232 4.77227 13.1255 4.68414C14.2787 4.32089 15.4728 4.10266 16.68 4.03448C17.3254 4.06984 17.9202 4.39538 18.2979 4.92C19.1596 6.1032 19.6088 7.53665 19.5765 9C19.5765 10.0593 19.1213 10.6676 18.4965 10.9531V10.9614L18.6165 11.7931L18.7075 12.4303C18.73 12.5943 18.8494 12.7284 19.0096 12.7697C19.705 13.0065 20.3277 13.4184 20.8179 13.9655C21.5834 14.7269 23.1269 17.2138 24.2069 19.7835Z" fill="#35495E"/>
<path d="M18.6166 11.7931C18.2892 11.9191 17.9411 11.9823 17.5903 11.9793C17.1383 11.9763 16.6907 11.8893 16.2703 11.7227C15.7996 11.5322 15.4906 11.0761 15.4883 10.5683V7.75861C15.4883 7.53008 15.6735 7.34482 15.9021 7.34482C16.1306 7.34482 16.3159 7.53008 16.3159 7.75861V10.5683C16.3157 10.7378 16.419 10.8904 16.5766 10.9531C17.1554 11.2023 17.8087 11.2157 18.3972 10.9903C18.4289 10.9764 18.4623 10.9666 18.4966 10.9614L18.6166 11.7931Z" fill="#2C3E50"/>
<path d="M21.6001 20.7186C21.5254 20.9343 21.2915 21.0504 21.0745 20.9793C20.2965 20.6753 19.4181 20.7793 18.7325 21.2565C17.9249 21.8918 17.4623 22.8693 17.4828 23.8965C17.4764 24.2426 17.5412 24.5863 17.6732 24.9062C17.4249 25.0262 17.1725 25.1421 16.9159 25.2455C16.7387 24.8181 16.65 24.3592 16.6552 23.8965C16.6361 22.604 17.2263 21.3777 18.2483 20.5862C19.1511 19.9542 20.3072 19.8072 21.3394 20.1931C21.5551 20.2678 21.6711 20.5017 21.6001 20.7186Z" fill="#2C3E50"/>
<path d="M9.20684 7.76691V9.00001C9.20684 9.22854 9.02158 9.4138 8.79305 9.4138H7.61374C7.56348 9.10616 7.54408 8.79427 7.55581 8.48277C7.56161 8.29954 7.68831 8.14243 7.86615 8.09794L9.20684 7.76691Z" fill="#3F5C6C"/>
</g>
<defs>
<clipPath id="clip0_108_1538">
<rect width="24" height="24" fill="white" transform="translate(3 3)"/>
</clipPath>
</defs>
</svg>
