<svg xmlns="http://www.w3.org/2000/svg" fill="#667479" enable-background="new 0 0 90 90" viewBox="0 0 90 90"><path d="M50.065 35.729c4.385 0 8.703 1.913 12.391 5.438.973.851 1.041 2.348.15 3.28-.896.938-2.391.938-3.281.005-3.01-2.883-6.172-4.188-9.26-4.188-3.084 0-6.24 1.304-9.25 4.188-.434.427-1.027.662-1.637.646-2.031-.052-2.979-2.545-1.488-3.932C41.372 37.642 45.685 35.729 50.065 35.729zM59.513 26.78c1.813 0 3.287 1.477 3.287 3.291 0 1.815-1.475 3.285-3.287 3.285s-3.281-1.47-3.281-3.285C56.231 28.256 57.7 26.78 59.513 26.78zM40.628 26.78c1.813 0 3.281 1.477 3.281 3.291 0 1.815-1.469 3.285-3.281 3.285-1.818 0-3.287-1.47-3.287-3.285C37.341 28.256 38.81 26.78 40.628 26.78zM10.237 5.269c-4.422.125-5.125 6.795-.844 7.958l5.582 1.971 6.568 34.245c.787 4.098 2.088 7.807 3.906 10.998 2.672 4.699 7.313 8.167 13.037 8.167h28.426c5.131.093 5.131-8.116 0-8.021H38.487c-4.047-.516-5.725-2.555-7.209-5.544H68.8c3.441 0 5.363-3.056 6.213-6.591l8.207-27.92c.438-4.59-1.994-5.496-6.25-5.496l-53.904.041-1.449-4.428c-.391-1.318-1.391-2.336-2.645-2.69L10.237 5.269zM40.425 72.697c-3.359 0-6.084 2.727-6.084 6.086 0 3.363 2.725 6.09 6.084 6.09s6.078-2.727 6.078-6.09C46.503 75.424 43.784 72.697 40.425 72.697zM64.663 72.697c-3.354 0-6.078 2.727-6.078 6.086 0 3.363 2.725 6.09 6.078 6.09 3.359 0 6.084-2.727 6.084-6.09C70.747 75.424 68.022 72.697 64.663 72.697z"/></svg>